<svg width="53" height="54" viewBox="0 0 53 54" fill="none" xmlns="http://www.w3.org/2000/svg">
<path d="M20.3738 28.5595L19.6667 27.8524L18.2524 29.2666L18.9596 29.9737L20.3738 28.5595ZM26.7333 36.3333L26.0262 37.0404L26.7333 37.7475L27.4404 37.0404L26.7333 36.3333ZM34.5071 29.9737L35.2142 29.2666L33.8 27.8524L33.0929 28.5595L34.5071 29.9737ZM2 25.7333H1H2ZM26.7333 1V0V1ZM26.7333 50.4666V49.4666V50.4666ZM51.4666 25.7333H50.4666H51.4666ZM18.9596 29.9737L26.0262 37.0404L27.4404 35.6262L20.3738 28.5595L18.9596 29.9737ZM27.4404 37.0404L34.5071 29.9737L33.0929 28.5595L26.0262 35.6262L27.4404 37.0404ZM27.7333 36.3333V13.3666H25.7333V36.3333H27.7333ZM3 25.7333C3 12.6258 13.6258 2 26.7333 2L26.7333 0C12.5212 -5.96046e-07 1 11.5212 1 25.7333H3ZM26.7333 49.4666C13.6258 49.4666 3 38.8408 3 25.7333H1C0.999999 39.9454 12.5212 51.4666 26.7333 51.4666V49.4666ZM50.4666 25.7333C50.4666 38.8408 39.8409 49.4666 26.7333 49.4666V51.4666C40.9454 51.4666 52.4666 39.9454 52.4666 25.7333H50.4666ZM52.4666 25.7333C52.4666 11.5212 40.9454 5.96046e-07 26.7333 0L26.7333 2C39.8409 2 50.4666 12.6258 50.4666 25.7333H52.4666Z" fill="#FCAB11"/>
</svg>
