<svg id="visual" viewBox="0 0 960 540" width="960" height="540" xmlns="http://www.w3.org/2000/svg" xmlns:xlink="http://www.w3.org/1999/xlink" version="1.1"><rect x="0" y="0" width="960" height="540" fill="#101010"></rect><defs><linearGradient id="grad1_0" x1="43.8%" y1="0%" x2="100%" y2="100%"><stop offset="14.444444444444446%" stop-color="#101010" stop-opacity="1"></stop><stop offset="85.55555555555554%" stop-color="#101010" stop-opacity="1"></stop></linearGradient></defs><defs><linearGradient id="grad2_0" x1="0%" y1="0%" x2="56.3%" y2="100%"><stop offset="14.444444444444446%" stop-color="#101010" stop-opacity="1"></stop><stop offset="85.55555555555554%" stop-color="#101010" stop-opacity="1"></stop></linearGradient></defs><g transform="translate(960, 0)"><path d="M0 270C-36.8 268.2 -73.5 266.3 -103.3 249.4C-133.1 232.6 -156 200.6 -171.1 171.1C-186.2 141.6 -193.6 114.6 -208.8 86.5C-224 58.4 -247 29.2 -270 0L0 0Z" fill="#FCAB11"></path></g><g transform="translate(0, 540)"><path d="M0 -270C36.6 -261.7 73.3 -253.4 96.1 -231.9C118.8 -210.4 127.8 -175.7 154.9 -154.9C182 -134 227.2 -126.8 249.4 -103.3C271.7 -79.8 270.8 -39.9 270 0L0 0Z" fill="#FCAB11"></path></g></svg>