<svg width="30" height="30" viewBox="0 0 30 30" fill="none" xmlns="http://www.w3.org/2000/svg">
<path d="M26.3196 15H23.8196C23.4881 15 23.1701 15.1317 22.9357 15.3661C22.7013 15.6005 22.5696 15.9185 22.5696 16.25C22.5696 16.5815 22.7013 16.8995 22.9357 17.1339C23.1701 17.3683 23.4881 17.5 23.8196 17.5V20H22.3393C22.4875 19.5997 22.5654 19.1768 22.5696 18.75C22.5697 17.9245 22.2974 17.122 21.7949 16.467C21.2924 15.8121 20.5878 15.3413 19.7904 15.1277C18.993 14.9141 18.1473 14.9696 17.3847 15.2856C16.6221 15.6017 15.9851 16.1606 15.5725 16.8756C15.4897 17.0178 15.4357 17.175 15.4138 17.3382C15.3918 17.5013 15.4023 17.6672 15.4446 17.8263C15.487 17.9853 15.5603 18.1345 15.6604 18.2651C15.7606 18.3958 15.8855 18.5054 16.0281 18.5876C16.1707 18.6698 16.3282 18.7231 16.4914 18.7443C16.6546 18.7655 16.8204 18.7543 16.9793 18.7112C17.1382 18.6682 17.287 18.5942 17.4172 18.4935C17.5474 18.3928 17.6565 18.2673 17.7381 18.1244C17.8478 17.9347 18.0055 17.7772 18.1954 17.6676C18.3852 17.558 18.6004 17.5002 18.8196 17.5C19.1511 17.5 19.4691 17.6317 19.7035 17.8661C19.9379 18.1005 20.0696 18.4185 20.0696 18.75C20.0696 19.0815 19.9379 19.3995 19.7035 19.6339C19.4691 19.8683 19.1511 20 18.8196 20C18.4881 20 18.1701 20.1317 17.9357 20.3661C17.7013 20.6005 17.5696 20.9185 17.5696 21.25C17.5696 21.5815 17.7013 21.8995 17.9357 22.1339C18.1701 22.3683 18.4881 22.5 18.8196 22.5C19.1511 22.5 19.4691 22.6317 19.7035 22.8661C19.9379 23.1005 20.0696 23.4185 20.0696 23.75C20.0696 24.0815 19.9379 24.3995 19.7035 24.6339C19.4691 24.8683 19.1511 25 18.8196 25C18.6004 24.9998 18.3852 24.942 18.1954 24.8324C18.0055 24.7228 17.8479 24.5653 17.7381 24.3756C17.6565 24.2327 17.5474 24.1072 17.4172 24.0065C17.287 23.9058 17.1382 23.8318 16.9793 23.7887C16.8205 23.7457 16.6546 23.7345 16.4914 23.7557C16.3282 23.7769 16.1707 23.8302 16.0281 23.9124C15.8855 23.9946 15.7606 24.1042 15.6604 24.2348C15.5603 24.3655 15.487 24.5146 15.4446 24.6737C15.4023 24.8328 15.3918 24.9987 15.4138 25.1618C15.4357 25.3249 15.4897 25.4821 15.5725 25.6244C15.9851 26.3394 16.6221 26.8983 17.3847 27.2143C18.1473 27.5304 18.993 27.5859 19.7904 27.3723C20.5878 27.1587 21.2924 26.6879 21.7949 26.0329C22.2974 25.378 22.5697 24.5755 22.5696 23.75C22.5654 23.3232 22.4875 22.9003 22.3393 22.5H23.8196V26.25C23.8196 26.5815 23.9513 26.8995 24.1857 27.1339C24.4201 27.3683 24.7381 27.5 25.0696 27.5C25.4011 27.5 25.7191 27.3683 25.9535 27.1339C26.1879 26.8995 26.3196 26.5815 26.3196 26.25V17.5C26.6511 17.5 26.9691 17.3683 27.2035 17.1339C27.4379 16.8995 27.5696 16.5815 27.5696 16.25C27.5696 15.9185 27.4379 15.6005 27.2035 15.3661C26.9691 15.1317 26.6511 15 26.3196 15ZM11.3575 14.0534C11.4379 14.3748 11.6428 14.6512 11.927 14.8216C12.0677 14.906 12.2237 14.9619 12.386 14.986C12.5483 15.0101 12.7138 15.002 12.873 14.9622C13.0321 14.9223 13.1819 14.8515 13.3137 14.7538C13.4456 14.6561 13.5568 14.5334 13.6412 14.3926C13.7256 14.2519 13.7815 14.0959 13.8056 13.9336C13.8297 13.7713 13.8216 13.6058 13.7818 13.4467L11.5857 4.65943C11.4316 4.04264 11.0757 3.49508 10.5746 3.10381C10.0735 2.71253 9.45597 2.5 8.82022 2.5C8.18446 2.5 7.56695 2.71253 7.06585 3.10381C6.56476 3.49508 6.20886 4.04264 6.05472 4.65943L3.85745 13.4467C3.777 13.7681 3.82755 14.1084 3.99799 14.3926C4.16842 14.6768 4.44478 14.8817 4.76626 14.9622C5.08774 15.0426 5.42802 14.9921 5.71223 14.8216C5.99645 14.6512 6.20131 14.3748 6.28177 14.0534L6.98275 11.25H10.6568L11.3575 14.0534ZM7.6079 8.75001L8.47903 5.26612C8.50544 5.19704 8.5522 5.1376 8.61312 5.09567C8.67404 5.05374 8.74626 5.03129 8.82022 5.03129C8.89417 5.03129 8.96639 5.05374 9.02731 5.09567C9.08823 5.1376 9.13499 5.19704 9.1614 5.26612L10.0321 8.75001H7.6079ZM17.5696 8.75001H18.8196C19.151 8.75034 19.4688 8.88214 19.7031 9.11649C19.9375 9.35084 20.0693 9.66859 20.0696 10V11.25C20.0696 11.5815 20.2013 11.8995 20.4357 12.1339C20.6701 12.3683 20.9881 12.5 21.3196 12.5C21.6511 12.5 21.9691 12.3683 22.2035 12.1339C22.4379 11.8995 22.5696 11.5815 22.5696 11.25V10C22.5685 9.00578 22.1731 8.05258 21.4701 7.34955C20.767 6.64653 19.8138 6.25109 18.8196 6.25001H17.5696C17.2381 6.25001 16.9201 6.3817 16.6857 6.61612C16.4513 6.85054 16.3196 7.16849 16.3196 7.50001C16.3196 7.83153 16.4513 8.14947 16.6857 8.38389C16.9201 8.61831 17.2381 8.75001 17.5696 8.75001ZM12.5696 20H11.3196C10.9882 19.9997 10.6704 19.8679 10.4361 19.6335C10.2017 19.3992 10.0699 19.0814 10.0696 18.75V17.5C10.0696 17.1685 9.93791 16.8505 9.70349 16.6161C9.46907 16.3817 9.15112 16.25 8.8196 16.25C8.48808 16.25 8.17014 16.3817 7.93572 16.6161C7.7013 16.8505 7.5696 17.1685 7.5696 17.5V18.75C7.57069 19.7442 7.96613 20.6974 8.66915 21.4005C9.37218 22.1035 10.3254 22.4989 11.3196 22.5H12.5696C12.9011 22.5 13.2191 22.3683 13.4535 22.1339C13.6879 21.8995 13.8196 21.5815 13.8196 21.25C13.8196 20.9185 13.6879 20.6005 13.4535 20.3661C13.2191 20.1317 12.9011 20 12.5696 20Z" fill="white"/>
</svg>
